<svg xmlns="http://www.w3.org/2000/svg" width="511.675" height="61.531" viewBox="0 0 511.675 61.531">
  <g id="Group_14051" data-name="Group 14051" transform="translate(-704 -440.648)">
    <g id="Group_13964" data-name="Group 13964" transform="translate(685.186 335.881)" opacity="0.53" style="isolation: isolate">
      <path id="Path_41480" data-name="Path 41480" d="M517.346,104.767H66.917L19.771,151.9l1.362,1.375L67.72,106.687H517.741a.957.957,0,0,0,.681-.272Z" transform="translate(12.068 0)" fill="#fff"/>
      <g id="Group_13960" data-name="Group 13960" transform="translate(18.815 138.875)">
        <g id="Group_13958" data-name="Group 13958">
          <path id="Path_41507" data-name="Path 41507" d="M22.837,27.6a13.708,13.708,0,1,0,22.293,4.29.779.779,0,0,0-1.021-.395A.75.75,0,0,0,43.7,32.5a12,12,0,0,1,.967,5.434A12.162,12.162,0,1,1,33.16,25.16a12.334,12.334,0,0,1,3.718.79.809.809,0,0,0,1.008-.449.787.787,0,0,0-.463-1.008,13.878,13.878,0,0,0-4.181-.885A13.725,13.725,0,0,0,22.837,27.6Z" transform="translate(-18.815 -23.589)" fill="#fff"/>
        </g>
        <g id="Group_13959" data-name="Group 13959" transform="translate(3.79 3.794)">
          <path id="Path_41508" data-name="Path 41508" d="M22.008,26.765a9.943,9.943,0,0,0-.014,14.04,9.909,9.909,0,0,0,14.027,0,9.98,9.98,0,0,0,2.6-9.519.778.778,0,0,0-.953-.545.75.75,0,0,0-.558.94A8.371,8.371,0,0,1,34.932,39.7a8.368,8.368,0,1,1-4.889-14.217l.517.082a.776.776,0,1,0,.286-1.525c-.191-.041-.395-.068-.6-.1A9.839,9.839,0,0,0,22.008,26.765Z" transform="translate(-19.093 -23.867)" fill="#fff"/>
        </g>
      </g>
    </g>
  </g>
</svg>
