<svg xmlns="http://www.w3.org/2000/svg" xmlns:xlink="http://www.w3.org/1999/xlink" width="3555.56" height="2000" viewBox="0 0 3555.56 2000">
  <defs>
    <clipPath id="clip-path">
      <rect id="Rectangle_9910" data-name="Rectangle 9910" width="3555.56" height="2000" fill="none"/>
    </clipPath>
  </defs>
  <g id="Group_13488" data-name="Group 13488" clip-path="url(#clip-path)">
    <g id="Group_13487" data-name="Group 13487" opacity="0.4" style="mix-blend-mode: overlay;isolation: isolate">
      <path id="Path_41046" data-name="Path 41046" d="M3597.555,2321H0V0H3597.555Zm-3596.4-1.16H3596.4V1.16H1.156Z" fill="#fff"/>
      <rect id="Rectangle_9810" data-name="Rectangle 9810" width="3596.398" height="1.16" transform="translate(0.576 2274.355)" fill="#fff"/>
      <rect id="Rectangle_9811" data-name="Rectangle 9811" width="3596.398" height="1.16" transform="translate(0.576 2228.868)" fill="#fff"/>
      <rect id="Rectangle_9812" data-name="Rectangle 9812" width="3596.398" height="1.16" transform="translate(0.576 2183.381)" fill="#fff"/>
      <rect id="Rectangle_9813" data-name="Rectangle 9813" width="3596.398" height="1.16" transform="translate(0.576 2137.895)" fill="#fff"/>
      <rect id="Rectangle_9814" data-name="Rectangle 9814" width="3596.398" height="1.16" transform="translate(0.576 2092.407)" fill="#fff"/>
      <rect id="Rectangle_9815" data-name="Rectangle 9815" width="3596.398" height="1.16" transform="translate(0.576 2046.92)" fill="#fff"/>
      <rect id="Rectangle_9816" data-name="Rectangle 9816" width="3596.398" height="1.16" transform="translate(0.576 2001.433)" fill="#fff"/>
      <rect id="Rectangle_9817" data-name="Rectangle 9817" width="3596.398" height="1.16" transform="translate(0.576 1955.946)" fill="#fff"/>
      <rect id="Rectangle_9818" data-name="Rectangle 9818" width="3596.398" height="1.16" transform="translate(0.576 1910.458)" fill="#fff"/>
      <rect id="Rectangle_9819" data-name="Rectangle 9819" width="3596.398" height="1.16" transform="translate(0.576 1864.971)" fill="#fff"/>
      <rect id="Rectangle_9820" data-name="Rectangle 9820" width="3596.398" height="1.16" transform="translate(0.576 1819.485)" fill="#fff"/>
      <rect id="Rectangle_9821" data-name="Rectangle 9821" width="3596.398" height="1.16" transform="translate(0.576 1773.998)" fill="#fff"/>
      <rect id="Rectangle_9822" data-name="Rectangle 9822" width="3596.398" height="1.16" transform="translate(0.576 1728.51)" fill="#fff"/>
      <rect id="Rectangle_9823" data-name="Rectangle 9823" width="3596.398" height="1.16" transform="translate(0.576 1683.023)" fill="#fff"/>
      <rect id="Rectangle_9824" data-name="Rectangle 9824" width="3596.398" height="1.16" transform="translate(0.576 1637.536)" fill="#fff"/>
      <rect id="Rectangle_9825" data-name="Rectangle 9825" width="3596.398" height="1.16" transform="translate(0.576 1592.049)" fill="#fff"/>
      <rect id="Rectangle_9826" data-name="Rectangle 9826" width="3596.398" height="1.16" transform="translate(0.576 1546.561)" fill="#fff"/>
      <rect id="Rectangle_9827" data-name="Rectangle 9827" width="3596.398" height="1.16" transform="translate(0.576 1501.074)" fill="#fff"/>
      <rect id="Rectangle_9828" data-name="Rectangle 9828" width="3596.398" height="1.16" transform="translate(0.576 1455.588)" fill="#fff"/>
      <rect id="Rectangle_9829" data-name="Rectangle 9829" width="3596.398" height="1.16" transform="translate(0.576 1410.101)" fill="#fff"/>
      <rect id="Rectangle_9830" data-name="Rectangle 9830" width="3596.398" height="1.16" transform="translate(0.576 1364.614)" fill="#fff"/>
      <rect id="Rectangle_9831" data-name="Rectangle 9831" width="3596.398" height="1.16" transform="translate(0.576 1319.126)" fill="#fff"/>
      <rect id="Rectangle_9832" data-name="Rectangle 9832" width="3596.398" height="1.16" transform="translate(0.576 1273.639)" fill="#fff"/>
      <rect id="Rectangle_9833" data-name="Rectangle 9833" width="3596.398" height="1.16" transform="translate(0.576 1228.152)" fill="#fff"/>
      <rect id="Rectangle_9834" data-name="Rectangle 9834" width="3596.398" height="1.16" transform="translate(0.576 1182.664)" fill="#fff"/>
      <rect id="Rectangle_9835" data-name="Rectangle 9835" width="3596.398" height="1.16" transform="translate(0.576 1137.178)" fill="#fff"/>
      <rect id="Rectangle_9836" data-name="Rectangle 9836" width="3596.398" height="1.16" transform="translate(0.576 1091.691)" fill="#fff"/>
      <rect id="Rectangle_9837" data-name="Rectangle 9837" width="3596.398" height="1.16" transform="translate(0.576 1046.204)" fill="#fff"/>
      <rect id="Rectangle_9838" data-name="Rectangle 9838" width="3596.398" height="1.16" transform="translate(0.576 1000.716)" fill="#fff"/>
      <rect id="Rectangle_9839" data-name="Rectangle 9839" width="3596.398" height="1.16" transform="translate(0.576 955.229)" fill="#fff"/>
      <rect id="Rectangle_9840" data-name="Rectangle 9840" width="3596.398" height="1.16" transform="translate(0.576 909.742)" fill="#fff"/>
      <rect id="Rectangle_9841" data-name="Rectangle 9841" width="3596.398" height="1.16" transform="translate(0.576 864.255)" fill="#fff"/>
      <rect id="Rectangle_9842" data-name="Rectangle 9842" width="3596.398" height="1.16" transform="translate(0.576 818.768)" fill="#fff"/>
      <rect id="Rectangle_9843" data-name="Rectangle 9843" width="3596.398" height="1.16" transform="translate(0.576 773.281)" fill="#fff"/>
      <rect id="Rectangle_9844" data-name="Rectangle 9844" width="3596.398" height="1.16" transform="translate(0.576 727.794)" fill="#fff"/>
      <rect id="Rectangle_9845" data-name="Rectangle 9845" width="3596.398" height="1.16" transform="translate(0.576 682.307)" fill="#fff"/>
      <rect id="Rectangle_9846" data-name="Rectangle 9846" width="3596.398" height="1.16" transform="translate(0.576 636.82)" fill="#fff"/>
      <rect id="Rectangle_9847" data-name="Rectangle 9847" width="3596.398" height="1.16" transform="translate(0.576 591.332)" fill="#fff"/>
      <rect id="Rectangle_9848" data-name="Rectangle 9848" width="3596.398" height="1.16" transform="translate(0.576 545.846)" fill="#fff"/>
      <rect id="Rectangle_9849" data-name="Rectangle 9849" width="3596.398" height="1.16" transform="translate(0.576 500.358)" fill="#fff"/>
      <rect id="Rectangle_9850" data-name="Rectangle 9850" width="3596.398" height="1.16" transform="translate(0.576 454.871)" fill="#fff"/>
      <rect id="Rectangle_9851" data-name="Rectangle 9851" width="3596.398" height="1.16" transform="translate(0.576 409.384)" fill="#fff"/>
      <rect id="Rectangle_9852" data-name="Rectangle 9852" width="3596.398" height="1.16" transform="translate(0.576 363.897)" fill="#fff"/>
      <rect id="Rectangle_9853" data-name="Rectangle 9853" width="3596.398" height="1.16" transform="translate(0.576 318.41)" fill="#fff"/>
      <rect id="Rectangle_9854" data-name="Rectangle 9854" width="3596.398" height="1.16" transform="translate(0.576 272.922)" fill="#fff"/>
      <rect id="Rectangle_9855" data-name="Rectangle 9855" width="3596.398" height="1.16" transform="translate(0.576 227.436)" fill="#fff"/>
      <rect id="Rectangle_9856" data-name="Rectangle 9856" width="3596.398" height="1.16" transform="translate(0.576 181.949)" fill="#fff"/>
      <rect id="Rectangle_9857" data-name="Rectangle 9857" width="3596.398" height="1.16" transform="translate(0.576 136.461)" fill="#fff"/>
      <rect id="Rectangle_9858" data-name="Rectangle 9858" width="3596.398" height="1.16" transform="translate(0.576 90.974)" fill="#fff"/>
      <rect id="Rectangle_9859" data-name="Rectangle 9859" width="3596.398" height="1.16" transform="translate(0.576 45.487)" fill="#fff"/>
      <rect id="Rectangle_9860" data-name="Rectangle 9860" width="1.16" height="2319.843" transform="translate(3525.877 0.58)" fill="#fff"/>
      <rect id="Rectangle_9861" data-name="Rectangle 9861" width="1.16" height="2319.843" transform="translate(3455.36 0.58)" fill="#fff"/>
      <rect id="Rectangle_9862" data-name="Rectangle 9862" width="1.16" height="2319.843" transform="translate(3384.842 0.58)" fill="#fff"/>
      <rect id="Rectangle_9863" data-name="Rectangle 9863" width="1.16" height="2319.843" transform="translate(3314.323 0.58)" fill="#fff"/>
      <rect id="Rectangle_9864" data-name="Rectangle 9864" width="1.16" height="2319.843" transform="translate(3243.806 0.58)" fill="#fff"/>
      <rect id="Rectangle_9865" data-name="Rectangle 9865" width="1.16" height="2319.843" transform="translate(3173.289 0.58)" fill="#fff"/>
      <rect id="Rectangle_9866" data-name="Rectangle 9866" width="1.16" height="2319.843" transform="translate(3102.771 0.58)" fill="#fff"/>
      <rect id="Rectangle_9867" data-name="Rectangle 9867" width="1.16" height="2319.843" transform="translate(3032.254 0.58)" fill="#fff"/>
      <rect id="Rectangle_9868" data-name="Rectangle 9868" width="1.16" height="2319.843" transform="translate(2961.736 0.58)" fill="#fff"/>
      <rect id="Rectangle_9869" data-name="Rectangle 9869" width="1.16" height="2319.843" transform="translate(2891.219 0.58)" fill="#fff"/>
      <rect id="Rectangle_9870" data-name="Rectangle 9870" width="1.16" height="2319.843" transform="translate(2820.7 0.58)" fill="#fff"/>
      <rect id="Rectangle_9871" data-name="Rectangle 9871" width="1.16" height="2319.843" transform="translate(2750.183 0.58)" fill="#fff"/>
      <rect id="Rectangle_9872" data-name="Rectangle 9872" width="1.16" height="2319.843" transform="translate(2679.665 0.58)" fill="#fff"/>
      <rect id="Rectangle_9873" data-name="Rectangle 9873" width="1.16" height="2319.843" transform="translate(2609.148 0.58)" fill="#fff"/>
      <rect id="Rectangle_9874" data-name="Rectangle 9874" width="1.16" height="2319.843" transform="translate(2538.63 0.58)" fill="#fff"/>
      <rect id="Rectangle_9875" data-name="Rectangle 9875" width="1.16" height="2319.843" transform="translate(2468.113 0.58)" fill="#fff"/>
      <rect id="Rectangle_9876" data-name="Rectangle 9876" width="1.16" height="2319.843" transform="translate(2397.595 0.58)" fill="#fff"/>
      <rect id="Rectangle_9877" data-name="Rectangle 9877" width="1.16" height="2319.843" transform="translate(2327.078 0.58)" fill="#fff"/>
      <rect id="Rectangle_9878" data-name="Rectangle 9878" width="1.16" height="2319.843" transform="translate(2256.56 0.58)" fill="#fff"/>
      <rect id="Rectangle_9879" data-name="Rectangle 9879" width="1.16" height="2319.843" transform="translate(2186.042 0.58)" fill="#fff"/>
      <rect id="Rectangle_9880" data-name="Rectangle 9880" width="1.16" height="2319.843" transform="translate(2115.525 0.58)" fill="#fff"/>
      <rect id="Rectangle_9881" data-name="Rectangle 9881" width="1.16" height="2319.843" transform="translate(2045.007 0.58)" fill="#fff"/>
      <rect id="Rectangle_9882" data-name="Rectangle 9882" width="1.16" height="2319.843" transform="translate(1974.49 0.58)" fill="#fff"/>
      <rect id="Rectangle_9883" data-name="Rectangle 9883" width="1.16" height="2319.843" transform="translate(1903.972 0.58)" fill="#fff"/>
      <rect id="Rectangle_9884" data-name="Rectangle 9884" width="1.16" height="2319.843" transform="translate(1833.455 0.58)" fill="#fff"/>
      <rect id="Rectangle_9885" data-name="Rectangle 9885" width="1.16" height="2319.843" transform="translate(1762.937 0.58)" fill="#fff"/>
      <rect id="Rectangle_9886" data-name="Rectangle 9886" width="1.16" height="2319.843" transform="translate(1692.419 0.58)" fill="#fff"/>
      <rect id="Rectangle_9887" data-name="Rectangle 9887" width="1.16" height="2319.843" transform="translate(1621.901 0.58)" fill="#fff"/>
      <rect id="Rectangle_9888" data-name="Rectangle 9888" width="1.16" height="2319.843" transform="translate(1551.384 0.58)" fill="#fff"/>
      <rect id="Rectangle_9889" data-name="Rectangle 9889" width="1.16" height="2319.843" transform="translate(1480.866 0.58)" fill="#fff"/>
      <rect id="Rectangle_9890" data-name="Rectangle 9890" width="1.16" height="2319.843" transform="translate(1410.348 0.58)" fill="#fff"/>
      <rect id="Rectangle_9891" data-name="Rectangle 9891" width="1.16" height="2319.843" transform="translate(1339.831 0.58)" fill="#fff"/>
      <rect id="Rectangle_9892" data-name="Rectangle 9892" width="1.16" height="2319.843" transform="translate(1269.313 0.58)" fill="#fff"/>
      <rect id="Rectangle_9893" data-name="Rectangle 9893" width="1.16" height="2319.843" transform="translate(1198.796 0.58)" fill="#fff"/>
      <rect id="Rectangle_9894" data-name="Rectangle 9894" width="1.16" height="2319.843" transform="translate(1128.278 0.58)" fill="#fff"/>
      <rect id="Rectangle_9895" data-name="Rectangle 9895" width="1.16" height="2319.843" transform="translate(1057.76 0.58)" fill="#fff"/>
      <rect id="Rectangle_9896" data-name="Rectangle 9896" width="1.16" height="2319.843" transform="translate(987.243 0.58)" fill="#fff"/>
      <rect id="Rectangle_9897" data-name="Rectangle 9897" width="1.16" height="2319.843" transform="translate(916.725 0.58)" fill="#fff"/>
      <rect id="Rectangle_9898" data-name="Rectangle 9898" width="1.16" height="2319.843" transform="translate(846.207 0.58)" fill="#fff"/>
      <rect id="Rectangle_9899" data-name="Rectangle 9899" width="1.16" height="2319.843" transform="translate(775.69 0.58)" fill="#fff"/>
      <rect id="Rectangle_9900" data-name="Rectangle 9900" width="1.16" height="2319.843" transform="translate(705.173 0.58)" fill="#fff"/>
      <rect id="Rectangle_9901" data-name="Rectangle 9901" width="1.16" height="2319.843" transform="translate(634.655 0.58)" fill="#fff"/>
      <rect id="Rectangle_9902" data-name="Rectangle 9902" width="1.16" height="2319.843" transform="translate(564.137 0.58)" fill="#fff"/>
      <rect id="Rectangle_9903" data-name="Rectangle 9903" width="1.16" height="2319.843" transform="translate(493.62 0.58)" fill="#fff"/>
      <rect id="Rectangle_9904" data-name="Rectangle 9904" width="1.16" height="2319.843" transform="translate(423.102 0.58)" fill="#fff"/>
      <rect id="Rectangle_9905" data-name="Rectangle 9905" width="1.16" height="2319.843" transform="translate(352.584 0.58)" fill="#fff"/>
      <rect id="Rectangle_9906" data-name="Rectangle 9906" width="1.16" height="2319.843" transform="translate(282.067 0.58)" fill="#fff"/>
      <rect id="Rectangle_9907" data-name="Rectangle 9907" width="1.16" height="2319.843" transform="translate(211.549 0.58)" fill="#fff"/>
      <rect id="Rectangle_9908" data-name="Rectangle 9908" width="1.16" height="2319.843" transform="translate(141.032 0.58)" fill="#fff"/>
      <rect id="Rectangle_9909" data-name="Rectangle 9909" width="1.16" height="2319.843" transform="translate(70.514 0.58)" fill="#fff"/>
    </g>
  </g>
</svg>
