<svg xmlns="http://www.w3.org/2000/svg" width="1920" height="1080" viewBox="0 0 1920 1080">
  <g id="Group_39751" data-name="Group 39751" transform="translate(-2989 4320)" opacity="0.7">
    <g id="Layer_2" data-name="Layer 2" transform="translate(2989 -4320)">
      <g id="Group_47274" data-name="Group 47274" transform="translate(0)">
        <g id="Group_13487" data-name="Group 13487" transform="translate(0)" opacity="0.4" style="mix-blend-mode: overlay;isolation: isolate">
          <path id="Path_41046" data-name="Path 41046" d="M1920,1080H0V0H1920ZM.615,1079.46H1919.377V.54H.615Z" transform="translate(0.004)" fill="#c4eeff"/>
          <rect id="Rectangle_9810" data-name="Rectangle 9810" width="1919.216" height="0.989" transform="translate(0.392 1040.237)" fill="#c4eeff"/>
          <rect id="Rectangle_9811" data-name="Rectangle 9811" width="1919.216" height="0.989" transform="translate(0.392 1001.463)" fill="#c4eeff"/>
          <rect id="Rectangle_9812" data-name="Rectangle 9812" width="1919.216" height="0.989" transform="translate(0.392 962.69)" fill="#c4eeff"/>
          <rect id="Rectangle_9813" data-name="Rectangle 9813" width="1919.216" height="0.989" transform="translate(0.392 923.917)" fill="#c4eeff"/>
          <rect id="Rectangle_9814" data-name="Rectangle 9814" width="1919.216" height="0.989" transform="translate(0.392 885.143)" fill="#c4eeff"/>
          <rect id="Rectangle_9815" data-name="Rectangle 9815" width="1919.216" height="0.989" transform="translate(0.392 846.369)" fill="#c4eeff"/>
          <rect id="Rectangle_9816" data-name="Rectangle 9816" width="1919.216" height="0.989" transform="translate(0.392 862.5)" fill="#c4eeff"/>
          <rect id="Rectangle_9817" data-name="Rectangle 9817" width="1919.216" height="0.989" transform="translate(0.392 831.57)" fill="#c4eeff"/>
          <rect id="Rectangle_9818" data-name="Rectangle 9818" width="1919.216" height="0.989" transform="translate(0.392 800.64)" fill="#c4eeff"/>
          <rect id="Rectangle_9819" data-name="Rectangle 9819" width="1919.216" height="0.989" transform="translate(0.392 769.71)" fill="#c4eeff"/>
          <rect id="Rectangle_9820" data-name="Rectangle 9820" width="1919.216" height="0.989" transform="translate(0.392 846.283)" fill="#c4eeff"/>
          <rect id="Rectangle_9821" data-name="Rectangle 9821" width="1919.216" height="0.989" transform="translate(0.392 825.126)" fill="#c4eeff"/>
          <rect id="Rectangle_9822" data-name="Rectangle 9822" width="1919.216" height="0.989" transform="translate(0.392 803.969)" fill="#c4eeff"/>
          <rect id="Rectangle_9823" data-name="Rectangle 9823" width="1919.216" height="0.989" transform="translate(0.392 782.812)" fill="#c4eeff"/>
          <rect id="Rectangle_9824" data-name="Rectangle 9824" width="1919.216" height="0.989" transform="translate(0.392 761.655)" fill="#c4eeff"/>
          <rect id="Rectangle_9825" data-name="Rectangle 9825" width="1919.216" height="0.989" transform="translate(0.392 740.498)" fill="#c4eeff"/>
          <rect id="Rectangle_9826" data-name="Rectangle 9826" width="1919.216" height="0.989" transform="translate(0.392 719.34)" fill="#c4eeff"/>
          <rect id="Rectangle_9827" data-name="Rectangle 9827" width="1919.216" height="0.989" transform="translate(0.392 698.183)" fill="#c4eeff"/>
          <rect id="Rectangle_9828" data-name="Rectangle 9828" width="1919.216" height="0.989" transform="translate(0.392 677.027)" fill="#c4eeff"/>
          <rect id="Rectangle_9829" data-name="Rectangle 9829" width="1919.216" height="0.989" transform="translate(0.392 655.87)" fill="#c4eeff"/>
          <rect id="Rectangle_9830" data-name="Rectangle 9830" width="1919.216" height="0.989" transform="translate(0.392 634.712)" fill="#c4eeff"/>
          <rect id="Rectangle_9831" data-name="Rectangle 9831" width="1919.216" height="0.989" transform="translate(0.392 613.555)" fill="#c4eeff"/>
          <rect id="Rectangle_9832" data-name="Rectangle 9832" width="1919.216" height="0.989" transform="translate(0.392 592.398)" fill="#c4eeff"/>
          <rect id="Rectangle_9833" data-name="Rectangle 9833" width="1919.216" height="0.989" transform="translate(0.392 571.241)" fill="#c4eeff"/>
          <rect id="Rectangle_9834" data-name="Rectangle 9834" width="1919.216" height="0.989" transform="translate(0.392 550.084)" fill="#c4eeff"/>
          <rect id="Rectangle_9835" data-name="Rectangle 9835" width="1919.216" height="0.989" transform="translate(0.392 528.927)" fill="#c4eeff"/>
          <rect id="Rectangle_9836" data-name="Rectangle 9836" width="1919.216" height="0.989" transform="translate(0.392 507.77)" fill="#c4eeff"/>
          <rect id="Rectangle_9837" data-name="Rectangle 9837" width="1919.216" height="0.989" transform="translate(0.392 486.613)" fill="#c4eeff"/>
          <rect id="Rectangle_9838" data-name="Rectangle 9838" width="1919.216" height="0.989" transform="translate(0.392 465.456)" fill="#c4eeff"/>
          <rect id="Rectangle_9839" data-name="Rectangle 9839" width="1919.216" height="0.989" transform="translate(0.392 444.299)" fill="#c4eeff"/>
          <rect id="Rectangle_9840" data-name="Rectangle 9840" width="1919.216" height="0.989" transform="translate(0.392 423.142)" fill="#c4eeff"/>
          <rect id="Rectangle_9841" data-name="Rectangle 9841" width="1919.216" height="0.989" transform="translate(0.392 401.985)" fill="#c4eeff"/>
          <rect id="Rectangle_9842" data-name="Rectangle 9842" width="1919.216" height="0.989" transform="translate(0.392 380.827)" fill="#c4eeff"/>
          <rect id="Rectangle_9843" data-name="Rectangle 9843" width="1919.216" height="0.989" transform="translate(0.392 359.67)" fill="#c4eeff"/>
          <rect id="Rectangle_9844" data-name="Rectangle 9844" width="1919.216" height="0.989" transform="translate(0.392 338.513)" fill="#c4eeff"/>
          <rect id="Rectangle_9845" data-name="Rectangle 9845" width="1919.216" height="0.989" transform="translate(0.392 317.356)" fill="#c4eeff"/>
          <rect id="Rectangle_9846" data-name="Rectangle 9846" width="1919.216" height="0.989" transform="translate(0.392 296.199)" fill="#c4eeff"/>
          <rect id="Rectangle_9847" data-name="Rectangle 9847" width="1919.216" height="0.989" transform="translate(0.392 275.042)" fill="#c4eeff"/>
          <rect id="Rectangle_9848" data-name="Rectangle 9848" width="1919.216" height="0.989" transform="translate(0.392 253.885)" fill="#c4eeff"/>
          <rect id="Rectangle_9849" data-name="Rectangle 9849" width="1919.216" height="0.989" transform="translate(0.392 232.728)" fill="#c4eeff"/>
          <rect id="Rectangle_9850" data-name="Rectangle 9850" width="1919.216" height="0.989" transform="translate(0.392 309.301)" fill="#c4eeff"/>
          <rect id="Rectangle_9851" data-name="Rectangle 9851" width="1919.216" height="0.989" transform="translate(0.392 278.371)" fill="#c4eeff"/>
          <rect id="Rectangle_9852" data-name="Rectangle 9852" width="1919.216" height="0.989" transform="translate(0.392 247.441)" fill="#c4eeff"/>
          <rect id="Rectangle_9853" data-name="Rectangle 9853" width="1919.216" height="0.989" transform="translate(0.392 216.511)" fill="#c4eeff"/>
          <rect id="Rectangle_9854" data-name="Rectangle 9854" width="1919.216" height="0.989" transform="translate(0.392 232.642)" fill="#c4eeff"/>
          <rect id="Rectangle_9855" data-name="Rectangle 9855" width="1919.216" height="0.989" transform="translate(0.392 193.868)" fill="#c4eeff"/>
          <rect id="Rectangle_9856" data-name="Rectangle 9856" width="1919.216" height="0.989" transform="translate(0.392 155.095)" fill="#c4eeff"/>
          <rect id="Rectangle_9858" data-name="Rectangle 9858" width="1919.216" height="0.989" transform="translate(0.392 77.547)" fill="#c4eeff"/>
          <rect id="Rectangle_9859" data-name="Rectangle 9859" width="1919.216" height="0.989" transform="translate(0.392 38.774)" fill="#c4eeff"/>
          <rect id="Rectangle_9860" data-name="Rectangle 9860" width="0.784" height="1079.011" transform="translate(1871.574 0.494)" fill="#c4eeff"/>
          <rect id="Rectangle_9861" data-name="Rectangle 9861" width="0.784" height="1079.011" transform="translate(1823.931 0.494)" fill="#c4eeff"/>
          <rect id="Rectangle_9862" data-name="Rectangle 9862" width="0.784" height="1079.011" transform="translate(1776.289 0.494)" fill="#c4eeff"/>
          <rect id="Rectangle_9863" data-name="Rectangle 9863" width="0.784" height="1079.011" transform="translate(1728.646 0.494)" fill="#c4eeff"/>
          <rect id="Rectangle_9864" data-name="Rectangle 9864" width="0.784" height="1079.011" transform="translate(1681.003 0.494)" fill="#c4eeff"/>
          <rect id="Rectangle_9865" data-name="Rectangle 9865" width="0.784" height="1079.011" transform="translate(1633.361 0.494)" fill="#c4eeff"/>
          <rect id="Rectangle_9866" data-name="Rectangle 9866" width="0.784" height="1079.011" transform="translate(1585.719 0.494)" fill="#c4eeff"/>
          <rect id="Rectangle_9867" data-name="Rectangle 9867" width="0.784" height="1079.011" transform="translate(1538.076 0.494)" fill="#c4eeff"/>
          <rect id="Rectangle_9868" data-name="Rectangle 9868" width="0.784" height="1079.011" transform="translate(1500.124 0.494)" fill="#c4eeff"/>
          <rect id="Rectangle_9869" data-name="Rectangle 9869" width="0.784" height="1079.011" transform="translate(1453.558 0.494)" fill="#c4eeff"/>
          <rect id="Rectangle_9870" data-name="Rectangle 9870" width="0.784" height="1079.011" transform="translate(1505.267 0.494)" fill="#c4eeff"/>
          <rect id="Rectangle_9871" data-name="Rectangle 9871" width="0.784" height="1079.011" transform="translate(1467.635 0.494)" fill="#c4eeff"/>
          <rect id="Rectangle_9872" data-name="Rectangle 9872" width="0.784" height="1079.011" transform="translate(1430.004 0.494)" fill="#c4eeff"/>
          <rect id="Rectangle_9873" data-name="Rectangle 9873" width="0.784" height="1079.011" transform="translate(1392.372 0.494)" fill="#c4eeff"/>
          <rect id="Rectangle_9874" data-name="Rectangle 9874" width="0.784" height="1079.011" transform="translate(1354.74 0.494)" fill="#c4eeff"/>
          <rect id="Rectangle_9875" data-name="Rectangle 9875" width="0.784" height="1079.011" transform="translate(1317.109 0.494)" fill="#c4eeff"/>
          <rect id="Rectangle_9876" data-name="Rectangle 9876" width="0.784" height="1079.011" transform="translate(1279.478 0.494)" fill="#c4eeff"/>
          <rect id="Rectangle_9877" data-name="Rectangle 9877" width="0.784" height="1079.011" transform="translate(1241.846 0.494)" fill="#c4eeff"/>
          <rect id="Rectangle_9878" data-name="Rectangle 9878" width="0.784" height="1079.011" transform="translate(1204.214 0.494)" fill="#c4eeff"/>
          <rect id="Rectangle_9879" data-name="Rectangle 9879" width="0.784" height="1079.011" transform="translate(1166.582 0.494)" fill="#c4eeff"/>
          <rect id="Rectangle_9880" data-name="Rectangle 9880" width="0.784" height="1079.011" transform="translate(1128.951 0.494)" fill="#c4eeff"/>
          <rect id="Rectangle_9882" data-name="Rectangle 9882" width="0.784" height="1079.011" transform="translate(1053.687 0.494)" fill="#c4eeff"/>
          <rect id="Rectangle_9883" data-name="Rectangle 9883" width="0.784" height="1079.011" transform="translate(1016.056 0.494)" fill="#c4eeff"/>
          <rect id="Rectangle_9884" data-name="Rectangle 9884" width="0.784" height="1079.011" transform="translate(978.424 0.494)" fill="#c4eeff"/>
          <rect id="Rectangle_9885" data-name="Rectangle 9885" width="0.784" height="1079.011" transform="translate(940.792 0.494)" fill="#c4eeff"/>
          <rect id="Rectangle_9886" data-name="Rectangle 9886" width="0.784" height="1079.011" transform="translate(903.161 0.494)" fill="#c4eeff"/>
          <rect id="Rectangle_9887" data-name="Rectangle 9887" width="0.784" height="1079.011" transform="translate(865.529 0.494)" fill="#c4eeff"/>
          <rect id="Rectangle_9888" data-name="Rectangle 9888" width="0.784" height="1079.011" transform="translate(827.897 0.494)" fill="#c4eeff"/>
          <rect id="Rectangle_9889" data-name="Rectangle 9889" width="0.784" height="1079.011" transform="translate(790.266 0.494)" fill="#c4eeff"/>
          <rect id="Rectangle_9890" data-name="Rectangle 9890" width="0.784" height="1079.011" transform="translate(752.634 0.494)" fill="#c4eeff"/>
          <rect id="Rectangle_9891" data-name="Rectangle 9891" width="0.784" height="1079.011" transform="translate(715.002 0.494)" fill="#c4eeff"/>
          <rect id="Rectangle_9892" data-name="Rectangle 9892" width="0.784" height="1079.011" transform="translate(677.37 0.494)" fill="#c4eeff"/>
          <rect id="Rectangle_9893" data-name="Rectangle 9893" width="0.784" height="1079.011" transform="translate(639.739 0.494)" fill="#c4eeff"/>
          <rect id="Rectangle_9894" data-name="Rectangle 9894" width="0.784" height="1079.011" transform="translate(602.107 0.494)" fill="#c4eeff"/>
          <rect id="Rectangle_9895" data-name="Rectangle 9895" width="0.784" height="1079.011" transform="translate(564.475 0.494)" fill="#c4eeff"/>
          <rect id="Rectangle_9896" data-name="Rectangle 9896" width="0.784" height="1079.011" transform="translate(526.844 0.494)" fill="#c4eeff"/>
          <rect id="Rectangle_9897" data-name="Rectangle 9897" width="0.784" height="1079.011" transform="translate(489.212 0.494)" fill="#c4eeff"/>
          <rect id="Rectangle_9898" data-name="Rectangle 9898" width="0.784" height="1079.011" transform="translate(451.58 0.494)" fill="#c4eeff"/>
          <rect id="Rectangle_9899" data-name="Rectangle 9899" width="0.784" height="1079.011" transform="translate(413.949 0.494)" fill="#c4eeff"/>
          <rect id="Rectangle_9900" data-name="Rectangle 9900" width="0.784" height="1079.011" transform="translate(465.658 0.494)" fill="#c4eeff"/>
          <rect id="Rectangle_9901" data-name="Rectangle 9901" width="0.784" height="1079.011" transform="translate(419.092 0.494)" fill="#c4eeff"/>
          <rect id="Rectangle_9902" data-name="Rectangle 9902" width="0.784" height="1079.011" transform="translate(381.14 0.494)" fill="#c4eeff"/>
          <rect id="Rectangle_9903" data-name="Rectangle 9903" width="0.784" height="1079.011" transform="translate(333.497 0.494)" fill="#c4eeff"/>
          <rect id="Rectangle_9904" data-name="Rectangle 9904" width="0.784" height="1079.011" transform="translate(285.855 0.494)" fill="#c4eeff"/>
          <rect id="Rectangle_9905" data-name="Rectangle 9905" width="0.784" height="1079.011" transform="translate(238.212 0.494)" fill="#c4eeff"/>
          <rect id="Rectangle_9906" data-name="Rectangle 9906" width="0.784" height="1079.011" transform="translate(190.57 0.494)" fill="#c4eeff"/>
          <rect id="Rectangle_9907" data-name="Rectangle 9907" width="0.784" height="1079.011" transform="translate(142.928 0.494)" fill="#c4eeff"/>
          <rect id="Rectangle_9908" data-name="Rectangle 9908" width="0.784" height="1079.011" transform="translate(95.285 0.494)" fill="#c4eeff"/>
          <rect id="Rectangle_9909" data-name="Rectangle 9909" width="0.784" height="1079.011" transform="translate(47.643 0.494)" fill="#c4eeff"/>
        </g>
      </g>
    </g>
  </g>
</svg>
