<svg xmlns="http://www.w3.org/2000/svg" width="142.909" height="170.966" viewBox="0 0 142.909 170.966">
  <g id="Group_13486" data-name="Group 13486" transform="translate(0 0)">
    <path id="Path_31510" data-name="Path 31510" d="M257.365,270.114a11.768,11.768,0,0,1-.893-1.31,28.025,28.025,0,0,1-2.788-16.8c.294-2.165.705-4.314.994-6.479a4.621,4.621,0,0,0-.279-1.434,4.129,4.129,0,0,0-1.248.365c-4.094,2.869-6.871,6.515-7.179,11.752a39.312,39.312,0,0,1-1.092,5.416c-1.822-1.959-2.131-4.284-2.6-6.5-.8-3.777.394-7.092,2.752-10.009,1.621-2.005,3.409-3.876,5.042-5.871.288-.353.184-1.026.262-1.551a4.109,4.109,0,0,0-1.594-.023,20.47,20.47,0,0,0-6.049,4.261c-3,2.881-5.5,6.076-6.447,10.26a4.674,4.674,0,0,1-1.335,2.2,11.61,11.61,0,0,1-.718-1.966c-1.18-6.751,2.236-11.285,7.384-14.867a19.654,19.654,0,0,1,9.251-3.628,3.45,3.45,0,0,0,1.9-1.33c-4-.94-7.982-1.464-11.755.3a16.72,16.72,0,0,0-8.273,8.213l-.516-.171a19,19,0,0,1,.689-3.131c1.94-4.849,5.93-7.389,10.6-9.034a36.937,36.937,0,0,1,11.6-1.777c.6-.013,1.209.413,1.824.445a4.1,4.1,0,0,0,1.353-.419c-.229-.351-.394-.93-.7-1.018a67.725,67.725,0,0,0-6.79-1.751c-3.19-.573-6.1.819-9.091,1.624a2.69,2.69,0,0,1-1.367.109c2.634-3.125,5.687-5.553,9.952-5.87a30.536,30.536,0,0,1,11.8,1.54c-2.747-4.3-6.839-5.586-11.726-5.313,1.787-1.49,6.146-1.969,8.534-.852,1.822.853,3.539,1.928,5.3,2.91,1.674.933,1.94.812,2.195-1.05.2-1.457.381-2.917.57-4.376l.664-.169a6.326,6.326,0,0,1,.88,1.7,23.082,23.082,0,0,1,.287,3.624c.02,1.412.847,1.362,1.735.966a9.572,9.572,0,0,0,1.684-1.211,14.588,14.588,0,0,1,7.885-2.789,6.464,6.464,0,0,1,5.326,1.859,13.761,13.761,0,0,0-11.893,4.191l.189.514c1.747-.4,3.483-.851,5.242-1.18,3.77-.7,7.549-.805,10.934,1.272a56.221,56.221,0,0,1,5.481,4.327l-.268.321c-3.089-.564-6.173-1.541-9.269-1.577-3.059-.036-6.44-.307-9.048,1.938,0,.221.005.441.009.661.729.121,1.453.3,2.187.353,3.794.27,7.682.078,11.367.853,5.746,1.21,10.3,4.324,12.257,10.273a3,3,0,0,1,.043,1.675c-3.218-4.269-6.953-7.674-12.375-8.383a51.717,51.717,0,0,0-6.647-.047l-.266.509a8.333,8.333,0,0,0,2.068,1.316c5.583,1.526,10.4,4.269,13.722,9.079,2.412,3.488,2.332,7.428.968,11.489-1.108-2.307-2.174-4.635-3.333-6.916-1.859-3.66-4.322-6.721-8.362-8.184-.523-.189-.91-.74-1.43-.959a11.764,11.764,0,0,0-1.918-.474l-.354.6c.842,1.039,1.625,2.134,2.538,3.107,2.632,2.8,5.15,5.715,5.76,9.655.62,4.007-.759,7.578-3.107,11.349a21.29,21.29,0,0,1-.68-4.071,13.893,13.893,0,0,0-2.688-9.209,45.365,45.365,0,0,0-4.214-4.522,1.234,1.234,0,0,0-1.089-.265,1.282,1.282,0,0,0-.485.98,8.264,8.264,0,0,0,.144,2.069,33.881,33.881,0,0,1-1.357,19.583,22.644,22.644,0,0,1-1.524,2.752l-.5-.153c-.048-.544-.135-1.089-.136-1.632,0-2.246.093-4.5,0-6.737a12.62,12.62,0,0,0-.7-2.766c-.106-.38-.446-.8-.358-1.11.5-1.755-.574-2.962-1.359-4.28-.652-1.1-1.456-.821-1.8.069a14.171,14.171,0,0,0-1.4,5.054c.218,11.912.633,23.821.976,35.73.05,1.735.125,3.473.064,5.206a10.126,10.126,0,0,0,1.359,5.8,3.078,3.078,0,0,1,.317,2.445c-1.79,3.9-.555,7.031,2.141,9.923a5.594,5.594,0,0,1,1.323,1.992,2.082,2.082,0,0,1-1.455,2.745,11.2,11.2,0,0,1-3.4.494c-4.222.006-8.443-.121-12.665-.117-1.439,0-2.686-.257-3.382-1.61-.736-1.433.287-2.428,1.09-3.383,1.505-1.788,3.022-3.58,3.03-6.064,0-1.051-.428-2.1-.509-3.156a13.545,13.545,0,0,1,.059-3.426c.3-1.612,1.161-3.166,1.223-4.766.466-12.136.8-24.277,1.169-36.416.086-2.8.92-5.633-.273-8.4-.091-.211-.088-.48-.22-.653-.646-.846-1.323-1.667-1.989-2.5-.441.871-.945,1.716-1.31,2.618-.642,1.585-1.589,3.178-1.7,4.818a83.9,83.9,0,0,0,.221,8.79c.016.443.045.884.068,1.326Z" transform="translate(-196.089 -212.815)" fill="#fff"/>
    <path id="Path_31511" data-name="Path 31511" d="M196.244,399.605c-7.53.543-14.383,1.375-20.947,3.847a5.583,5.583,0,0,1-2.167-.134c.147-.795.013-1.986.485-2.319a54.913,54.913,0,0,1,8.411-5.344,42.074,42.074,0,0,1,23.857-3.4,67.662,67.662,0,0,1,20.779,6.2,80.73,80.73,0,0,1,16.154,10.629c1.18.991,2.278.653,3.463-.15,4.674-3.167,9.219-6.576,14.128-9.334,11.162-6.27,23.125-9.267,35.987-7.281a40.312,40.312,0,0,1,17.234,6.781,8.912,8.912,0,0,1,2.274,2.752,1.785,1.785,0,0,1-.194,1.708,2.008,2.008,0,0,1-1.724.084,57.651,57.651,0,0,0-48.788,3.409,72.442,72.442,0,0,0-12.086,8.915c-1.088.96-.957,1.709-.028,2.577,3.167,2.957,6.312,5.938,9.513,8.857,1.4,1.28,1.72,1.117,2.619-.625.482-.937,1.126-2.458,1.791-2.51a32.058,32.058,0,0,1,6.323.473c.256.032.63.609.635.938a28.541,28.541,0,0,1-.177,5.352c-.1.57-1.312,1.017-2.082,1.376a29.323,29.323,0,0,1-2.777.99c.563.813,1.066,1.678,1.7,2.43,1.419,1.675,2.907,3.291,4.362,4.935,2.711,3.063,5.036,2.956,7.457-.347,1.4-1.906,2.288-1.853,3.965-.091,2.882,3.03,1.779,7.892-1.5,10.523a12.014,12.014,0,0,1-3.17,1.721c-3.929,1.523-7.108-.088-9.874-2.712-3.226-3.059-6.325-6.253-9.451-9.415-.891-.9-1.587-.757-2.257.2-.1.142-.193.289-.292.431-.641.925-1.152,2.484-1.95,2.648a25.93,25.93,0,0,1-6.037.116c-.265-.009-.631-.595-.734-.972a8.771,8.771,0,0,1-.137-1.724c-.245-3.778-.245-3.778,3.3-4.921,1.312-.422,1.484-1.1.52-2.032-2.981-2.9-5.981-5.773-8.933-8.7a1.543,1.543,0,0,0-2.42-.1c-3.143,2.9-6.258,5.822-9.392,8.728-.8.745-.5,1.354.256,1.8a5.71,5.71,0,0,0,1.478.429,2.482,2.482,0,0,1,2.185,2.785c-.089,4.582-.009,4.583-4.44,4.935-2.775.22-2.964.112-4.248-2.406-1.148-2.253-1.5-2.34-3.34-.566-3.153,3.047-6.2,6.2-9.412,9.191-2.785,2.594-6.105,3.922-9.835,2.42-3.426-1.379-5.157-4.354-5.816-7.853-.382-2.027,1.366-4.769,3.2-5.738a1.511,1.511,0,0,1,2.248.463c.065.1.141.185.2.286,2.507,4.49,5.127,3.7,8,.255,1.441-1.727,3.008-3.349,4.494-5.039,1.209-1.375.983-2.035-.757-2.5-3.778-1-3-.288-3.385-4.041-.425-4.2-.323-4.234,3.9-4.383.636-.023,1.272-.042,1.907-.082a2.059,2.059,0,0,1,2.289,1.443,11.927,11.927,0,0,0,.989,2.021c.468.759,1.1,1.007,1.851.3q5.056-4.731,10.119-9.455c.928-.865.813-1.5-.121-2.414a55.083,55.083,0,0,0-18.929-12.136,46.992,46.992,0,0,0-14.049-3.415C200.468,400.267,198.074,399.838,196.244,399.605Z" transform="translate(-173.129 -282.368)" fill="#fff"/>
  </g>
</svg>
